<svg width="122" height="40" viewBox="0 0 122 40" fill="none" xmlns="http://www.w3.org/2000/svg">
<path d="M43.9252 29.66V38H42.5572V34.352H38.6332V38H37.2652V29.66H38.6332V33.236H42.5572V29.66H43.9252ZM52.5302 38.084C51.7542 38.084 51.0382 37.904 50.3822 37.544C49.7342 37.176 49.2182 36.668 48.8342 36.02C48.4582 35.364 48.2702 34.628 48.2702 33.812C48.2702 32.996 48.4582 32.264 48.8342 31.616C49.2182 30.968 49.7342 30.464 50.3822 30.104C51.0382 29.736 51.7542 29.552 52.5302 29.552C53.3142 29.552 54.0302 29.736 54.6782 30.104C55.3342 30.464 55.8502 30.968 56.2262 31.616C56.6022 32.264 56.7902 32.996 56.7902 33.812C56.7902 34.628 56.6022 35.364 56.2262 36.02C55.8502 36.668 55.3342 37.176 54.6782 37.544C54.0302 37.904 53.3142 38.084 52.5302 38.084ZM52.5302 36.896C53.0822 36.896 53.5742 36.772 54.0062 36.524C54.4382 36.268 54.7742 35.908 55.0142 35.444C55.2622 34.972 55.3862 34.428 55.3862 33.812C55.3862 33.196 55.2622 32.656 55.0142 32.192C54.7742 31.728 54.4382 31.372 54.0062 31.124C53.5742 30.876 53.0822 30.752 52.5302 30.752C51.9782 30.752 51.4862 30.876 51.0542 31.124C50.6222 31.372 50.2822 31.728 50.0342 32.192C49.7942 32.656 49.6742 33.196 49.6742 33.812C49.6742 34.428 49.7942 34.972 50.0342 35.444C50.2822 35.908 50.6222 36.268 51.0542 36.524C51.4862 36.772 51.9782 36.896 52.5302 36.896ZM66.5243 29.66V30.776H64.3043V38H62.9363V30.776H60.7043V29.66H66.5243ZM72.2778 30.764V33.212H75.1578V34.328H72.2778V36.884H75.5178V38H70.9098V29.648H75.5178V30.764H72.2778ZM81.5707 36.896H84.3907V38H80.2027V29.66H81.5707V36.896Z" fill="white"/>
<path d="M8.52594 20.168C7.35794 20.168 6.30194 19.968 5.35794 19.568C4.42994 19.168 3.69394 18.592 3.14994 17.84C2.60594 17.088 2.32594 16.2 2.30994 15.176H5.90994C5.95794 15.864 6.19794 16.408 6.62994 16.808C7.07794 17.208 7.68594 17.408 8.45394 17.408C9.23794 17.408 9.85394 17.224 10.3019 16.856C10.7499 16.472 10.9739 15.976 10.9739 15.368C10.9739 14.872 10.8219 14.464 10.5179 14.144C10.2139 13.824 9.82994 13.576 9.36594 13.4C8.91794 13.208 8.29394 13 7.49394 12.776C6.40594 12.456 5.51794 12.144 4.82994 11.84C4.15794 11.52 3.57394 11.048 3.07794 10.424C2.59794 9.784 2.35794 8.936 2.35794 7.88C2.35794 6.888 2.60594 6.024 3.10194 5.288C3.59794 4.552 4.29394 3.992 5.18994 3.608C6.08594 3.208 7.10994 3.008 8.26194 3.008C9.98994 3.008 11.3899 3.432 12.4619 4.28C13.5499 5.112 14.1499 6.28 14.2619 7.784H10.5659C10.5339 7.208 10.2859 6.736 9.82194 6.368C9.37394 5.984 8.77394 5.792 8.02194 5.792C7.36594 5.792 6.83794 5.96 6.43794 6.296C6.05394 6.632 5.86194 7.12 5.86194 7.76C5.86194 8.208 6.00594 8.584 6.29394 8.888C6.59794 9.176 6.96594 9.416 7.39794 9.608C7.84594 9.784 8.46994 9.992 9.26994 10.232C10.3579 10.552 11.2459 10.872 11.9339 11.192C12.6219 11.512 13.2139 11.992 13.7099 12.632C14.2059 13.272 14.4539 14.112 14.4539 15.152C14.4539 16.048 14.2219 16.88 13.7579 17.648C13.2939 18.416 12.6139 19.032 11.7179 19.496C10.8219 19.944 9.75794 20.168 8.52594 20.168ZM28.7269 13.064C28.7269 13.544 28.6949 13.976 28.6309 14.36H18.9109C18.9909 15.32 19.3269 16.072 19.9189 16.616C20.5109 17.16 21.2389 17.432 22.1029 17.432C23.3509 17.432 24.2389 16.896 24.7669 15.824H28.3909C28.0069 17.104 27.2709 18.16 26.1829 18.992C25.0949 19.808 23.7589 20.216 22.1749 20.216C20.8949 20.216 19.7429 19.936 18.7189 19.376C17.7109 18.8 16.9189 17.992 16.3429 16.952C15.7829 15.912 15.5029 14.712 15.5029 13.352C15.5029 11.976 15.7829 10.768 16.3429 9.728C16.9029 8.688 17.6869 7.888 18.6949 7.328C19.7029 6.768 20.8629 6.488 22.1749 6.488C23.4389 6.488 24.5669 6.76 25.5589 7.304C26.5669 7.848 27.3429 8.624 27.8869 9.632C28.4469 10.624 28.7269 11.768 28.7269 13.064ZM25.2469 12.104C25.2309 11.24 24.9189 10.552 24.3109 10.04C23.7029 9.512 22.9589 9.248 22.0789 9.248C21.2469 9.248 20.5429 9.504 19.9669 10.016C19.4069 10.512 19.0629 11.208 18.9349 12.104H25.2469ZM29.3154 13.304C29.3154 11.96 29.5794 10.768 30.1074 9.728C30.6514 8.688 31.3794 7.888 32.2914 7.328C33.2194 6.768 34.2514 6.488 35.3874 6.488C36.3794 6.488 37.2434 6.688 37.9794 7.088C38.7314 7.488 39.3314 7.992 39.7794 8.6V6.704H43.1634V20H39.7794V18.056C39.3474 18.68 38.7474 19.2 37.9794 19.616C37.2274 20.016 36.3554 20.216 35.3634 20.216C34.2434 20.216 33.2194 19.928 32.2914 19.352C31.3794 18.776 30.6514 17.968 30.1074 16.928C29.5794 15.872 29.3154 14.664 29.3154 13.304ZM39.7794 13.352C39.7794 12.536 39.6194 11.84 39.2994 11.264C38.9794 10.672 38.5474 10.224 38.0034 9.92C37.4594 9.6 36.8754 9.44 36.2514 9.44C35.6274 9.44 35.0514 9.592 34.5234 9.896C33.9954 10.2 33.5634 10.648 33.2274 11.24C32.9074 11.816 32.7474 12.504 32.7474 13.304C32.7474 14.104 32.9074 14.808 33.2274 15.416C33.5634 16.008 33.9954 16.464 34.5234 16.784C35.0674 17.104 35.6434 17.264 36.2514 17.264C36.8754 17.264 37.4594 17.112 38.0034 16.808C38.5474 16.488 38.9794 16.04 39.2994 15.464C39.6194 14.872 39.7794 14.168 39.7794 13.352ZM55.9478 20.168C54.7798 20.168 53.7238 19.968 52.7798 19.568C51.8518 19.168 51.1158 18.592 50.5718 17.84C50.0278 17.088 49.7478 16.2 49.7318 15.176H53.3318C53.3798 15.864 53.6198 16.408 54.0518 16.808C54.4998 17.208 55.1078 17.408 55.8758 17.408C56.6598 17.408 57.2758 17.224 57.7238 16.856C58.1718 16.472 58.3958 15.976 58.3958 15.368C58.3958 14.872 58.2438 14.464 57.9398 14.144C57.6358 13.824 57.2518 13.576 56.7878 13.4C56.3398 13.208 55.7158 13 54.9158 12.776C53.8278 12.456 52.9398 12.144 52.2518 11.84C51.5798 11.52 50.9958 11.048 50.4998 10.424C50.0198 9.784 49.7798 8.936 49.7798 7.88C49.7798 6.888 50.0278 6.024 50.5238 5.288C51.0198 4.552 51.7158 3.992 52.6118 3.608C53.5078 3.208 54.5318 3.008 55.6838 3.008C57.4118 3.008 58.8118 3.432 59.8838 4.28C60.9718 5.112 61.5718 6.28 61.6838 7.784H57.9878C57.9558 7.208 57.7078 6.736 57.2438 6.368C56.7958 5.984 56.1958 5.792 55.4438 5.792C54.7878 5.792 54.2598 5.96 53.8598 6.296C53.4758 6.632 53.2838 7.12 53.2838 7.76C53.2838 8.208 53.4278 8.584 53.7158 8.888C54.0198 9.176 54.3878 9.416 54.8198 9.608C55.2678 9.784 55.8918 9.992 56.6918 10.232C57.7798 10.552 58.6678 10.872 59.3558 11.192C60.0438 11.512 60.6358 11.992 61.1318 12.632C61.6278 13.272 61.8758 14.112 61.8758 15.152C61.8758 16.048 61.6438 16.88 61.1798 17.648C60.7158 18.416 60.0358 19.032 59.1398 19.496C58.2438 19.944 57.1798 20.168 55.9478 20.168ZM62.9248 13.352C62.9248 11.976 63.2048 10.776 63.7648 9.752C64.3248 8.712 65.1008 7.912 66.0928 7.352C67.0848 6.776 68.2208 6.488 69.5008 6.488C71.1488 6.488 72.5088 6.904 73.5808 7.736C74.6688 8.552 75.3968 9.704 75.7648 11.192H72.1408C71.9488 10.616 71.6208 10.168 71.1568 9.848C70.7088 9.512 70.1488 9.344 69.4768 9.344C68.5168 9.344 67.7568 9.696 67.1968 10.4C66.6368 11.088 66.3568 12.072 66.3568 13.352C66.3568 14.616 66.6368 15.6 67.1968 16.304C67.7568 16.992 68.5168 17.336 69.4768 17.336C70.8368 17.336 71.7248 16.728 72.1408 15.512H75.7648C75.3968 16.952 74.6688 18.096 73.5808 18.944C72.4928 19.792 71.1328 20.216 69.5008 20.216C68.2208 20.216 67.0848 19.936 66.0928 19.376C65.1008 18.8 64.3248 18 63.7648 16.976C63.2048 15.936 62.9248 14.728 62.9248 13.352ZM76.3623 13.304C76.3623 11.96 76.6263 10.768 77.1543 9.728C77.6983 8.688 78.4263 7.888 79.3383 7.328C80.2663 6.768 81.2983 6.488 82.4343 6.488C83.4263 6.488 84.2903 6.688 85.0263 7.088C85.7783 7.488 86.3783 7.992 86.8263 8.6V6.704H90.2103V20H86.8263V18.056C86.3943 18.68 85.7943 19.2 85.0263 19.616C84.2743 20.016 83.4023 20.216 82.4103 20.216C81.2903 20.216 80.2663 19.928 79.3383 19.352C78.4263 18.776 77.6983 17.968 77.1543 16.928C76.6263 15.872 76.3623 14.664 76.3623 13.304ZM86.8263 13.352C86.8263 12.536 86.6663 11.84 86.3463 11.264C86.0263 10.672 85.5943 10.224 85.0503 9.92C84.5063 9.6 83.9223 9.44 83.2983 9.44C82.6743 9.44 82.0983 9.592 81.5703 9.896C81.0423 10.2 80.6103 10.648 80.2743 11.24C79.9543 11.816 79.7943 12.504 79.7943 13.304C79.7943 14.104 79.9543 14.808 80.2743 15.416C80.6103 16.008 81.0423 16.464 81.5703 16.784C82.1143 17.104 82.6903 17.264 83.2983 17.264C83.9223 17.264 84.5063 17.112 85.0503 16.808C85.5943 16.488 86.0263 16.04 86.3463 15.464C86.6663 14.872 86.8263 14.168 86.8263 13.352ZM95.8519 8.624C96.2839 8.016 96.8759 7.512 97.6279 7.112C98.3959 6.696 99.2679 6.488 100.244 6.488C101.38 6.488 102.404 6.768 103.316 7.328C104.244 7.888 104.972 8.688 105.5 9.728C106.044 10.752 106.316 11.944 106.316 13.304C106.316 14.664 106.044 15.872 105.5 16.928C104.972 17.968 104.244 18.776 103.316 19.352C102.404 19.928 101.38 20.216 100.244 20.216C99.2679 20.216 98.4039 20.016 97.6519 19.616C96.9159 19.216 96.3159 18.712 95.8519 18.104V26.336H92.4919V6.704H95.8519V8.624ZM102.884 13.304C102.884 12.504 102.716 11.816 102.38 11.24C102.06 10.648 101.628 10.2 101.084 9.896C100.556 9.592 99.9799 9.44 99.3559 9.44C98.7479 9.44 98.1719 9.6 97.6279 9.92C97.0999 10.224 96.6679 10.672 96.3319 11.264C96.0119 11.856 95.8519 12.552 95.8519 13.352C95.8519 14.152 96.0119 14.848 96.3319 15.44C96.6679 16.032 97.0999 16.488 97.6279 16.808C98.1719 17.112 98.7479 17.264 99.3559 17.264C99.9799 17.264 100.556 17.104 101.084 16.784C101.628 16.464 102.06 16.008 102.38 15.416C102.716 14.824 102.884 14.12 102.884 13.304ZM120.118 13.064C120.118 13.544 120.086 13.976 120.022 14.36H110.302C110.382 15.32 110.718 16.072 111.31 16.616C111.902 17.16 112.63 17.432 113.494 17.432C114.742 17.432 115.63 16.896 116.158 15.824H119.782C119.398 17.104 118.662 18.16 117.574 18.992C116.486 19.808 115.15 20.216 113.566 20.216C112.286 20.216 111.134 19.936 110.11 19.376C109.102 18.8 108.31 17.992 107.734 16.952C107.174 15.912 106.894 14.712 106.894 13.352C106.894 11.976 107.174 10.768 107.734 9.728C108.294 8.688 109.078 7.888 110.086 7.328C111.094 6.768 112.254 6.488 113.566 6.488C114.83 6.488 115.958 6.76 116.95 7.304C117.958 7.848 118.734 8.624 119.278 9.632C119.838 10.624 120.118 11.768 120.118 13.064ZM116.638 12.104C116.622 11.24 116.31 10.552 115.702 10.04C115.094 9.512 114.35 9.248 113.47 9.248C112.638 9.248 111.934 9.504 111.358 10.016C110.798 10.512 110.454 11.208 110.326 12.104H116.638Z" fill="white"/>
</svg>
