<svg width="96" height="25" viewBox="0 0 96 25" fill="none" xmlns="http://www.w3.org/2000/svg">
<path d="M10.9832 10.9669H18.4595L17.5857 15.2876H10.1337L10.9832 10.9669ZM9.42973 20.725H3.70114L7.09946 3.73337H20.9112L20.0373 8.05409H11.9542L9.42973 20.725Z" fill="white"/>
<path d="M25.2268 20.9677C24.3529 20.9677 23.4953 20.733 22.6538 20.2638C21.8123 19.7783 21.1164 19.0824 20.5662 18.1762C20.0322 17.2538 19.7652 16.1372 19.7652 14.8264C19.7652 13.726 19.9513 12.7146 20.3235 11.7922C20.6957 10.8698 21.2054 10.0688 21.8527 9.38914C22.5162 8.69329 23.2687 8.15927 24.1102 7.78707C24.9679 7.3987 25.8741 7.20451 26.8288 7.20451C27.8645 7.20451 28.7627 7.41488 29.5232 7.83562C30.2838 8.25637 30.8259 8.9684 31.1496 9.97171C31.4894 10.9588 31.5218 12.3263 31.2467 14.074C31.0201 15.498 30.6317 16.7279 30.0815 17.7636C29.5475 18.7992 28.8759 19.5922 28.0668 20.1424C27.2577 20.6926 26.311 20.9677 25.2268 20.9677ZM27.2901 16.647C27.7755 16.647 28.1963 16.5256 28.5523 16.2829C28.9083 16.0239 29.1834 15.6679 29.3776 15.2148C29.588 14.7617 29.6931 14.2277 29.6931 13.6128C29.6931 12.9978 29.5151 12.4962 29.1591 12.1078C28.8193 11.7194 28.3419 11.5252 27.727 11.5252C27.2577 11.5252 26.8369 11.6547 26.4647 11.9136C26.1087 12.1563 25.8255 12.5043 25.6152 12.9574C25.421 13.4105 25.3239 13.9445 25.3239 14.5594C25.3239 15.1744 25.4938 15.676 25.8336 16.0644C26.1896 16.4528 26.6751 16.647 27.2901 16.647ZM28.5766 20.725L28.9407 18.9287L29.8388 14.074L30.5427 9.26777L30.9068 7.44724H36.3927L33.7469 20.725H28.5766Z" fill="white"/>
<path d="M41.9318 20.9677C40.7505 20.9677 39.6258 20.8544 38.5578 20.6279C37.5059 20.3851 36.6887 20.0938 36.1061 19.754L37.9995 16.0159C38.663 16.4204 39.4074 16.7279 40.2327 16.9383C41.0742 17.1324 41.8671 17.2295 42.6115 17.2295C43.2264 17.2295 43.6472 17.1729 43.8737 17.0596C44.1165 16.9302 44.2378 16.7764 44.2378 16.5984C44.2378 16.4042 44.076 16.2667 43.7524 16.1858C43.4287 16.0887 43.008 16.0078 42.4901 15.943C41.9885 15.8783 41.4544 15.7812 40.8881 15.6518C40.3217 15.5223 39.7796 15.3362 39.2617 15.0935C38.7601 14.8345 38.3474 14.4785 38.0238 14.0254C37.7001 13.5723 37.5383 12.9736 37.5383 12.2292C37.5383 11.0802 37.87 10.1416 38.5335 9.41341C39.2132 8.66902 40.1194 8.11882 41.2522 7.7628C42.3849 7.3906 43.6391 7.20451 45.0146 7.20451C45.9855 7.20451 46.916 7.29351 47.8061 7.47152C48.7123 7.63334 49.5133 7.87608 50.2092 8.19973L48.3158 11.9379C47.62 11.5333 46.9241 11.2663 46.2283 11.1368C45.5486 11.0074 44.9256 10.9427 44.3592 10.9427C43.7281 10.9427 43.2912 11.0155 43.0484 11.1611C42.8057 11.2906 42.6843 11.4362 42.6843 11.598C42.6843 11.7922 42.8461 11.9379 43.1698 12.035C43.4934 12.1321 43.9061 12.2211 44.4077 12.302C44.9094 12.3667 45.4434 12.4638 46.0098 12.5933C46.5924 12.7065 47.1345 12.8926 47.6361 13.1516C48.1378 13.3943 48.5505 13.7422 48.8741 14.1953C49.1978 14.6484 49.3596 15.2472 49.3596 15.9916C49.3596 17.092 49.0197 18.0144 48.3401 18.7588C47.6766 19.5032 46.7785 20.0615 45.6457 20.4337C44.5291 20.7897 43.2912 20.9677 41.9318 20.9677Z" fill="white"/>
<path d="M56.7249 20.9677C55.5922 20.9677 54.6293 20.7573 53.8364 20.3366C53.0434 19.9158 52.4851 19.3009 52.1615 18.4918C51.8378 17.6665 51.7893 16.6793 52.0158 15.5304L54.2247 4.46158H59.7106L57.5017 15.5061C57.4208 15.9592 57.4693 16.291 57.6473 16.5013C57.8253 16.7117 58.1004 16.8169 58.4726 16.8169C58.6992 16.8169 58.9015 16.7926 59.0795 16.7441C59.2737 16.6793 59.4759 16.5984 59.6863 16.5013L60.3174 20.1909C59.8158 20.466 59.2494 20.6602 58.6183 20.7735C58.0033 20.903 57.3722 20.9677 56.7249 20.9677ZM50.8507 12.1806L51.6517 8.17545H61.6768L60.8757 12.1806H50.8507Z" fill="white"/>
<path d="M69.2092 20.9677C67.7528 20.9677 66.4824 20.7169 65.3982 20.2152C64.314 19.6974 63.4725 18.9772 62.8738 18.0548C62.2912 17.1324 61.9999 16.0563 61.9999 14.8264C61.9999 13.37 62.3559 12.0673 63.0679 10.9184C63.78 9.76943 64.759 8.86321 66.0051 8.19973C67.2511 7.53625 68.6752 7.20451 70.2772 7.20451C71.7498 7.20451 73.0202 7.46343 74.0882 7.98126C75.1724 8.48292 76.0058 9.19495 76.5884 10.1174C77.1871 11.0236 77.4865 12.0997 77.4865 13.3458C77.4865 14.8022 77.1305 16.1049 76.4185 17.2538C75.7065 18.4028 74.7274 19.309 73.4814 19.9725C72.2515 20.636 70.8274 20.9677 69.2092 20.9677ZM69.5247 16.6955C70.0102 16.6955 70.431 16.5742 70.787 16.3314C71.143 16.0725 71.4181 15.7165 71.6123 15.2634C71.8227 14.7941 71.9278 14.2439 71.9278 13.6128C71.9278 13.0464 71.7579 12.5528 71.4181 12.1321C71.0783 11.6951 70.5928 11.4767 69.9617 11.4767C69.4924 11.4767 69.0716 11.6061 68.6994 11.8651C68.3434 12.1078 68.0602 12.4638 67.8499 12.9331C67.6557 13.3862 67.5586 13.9283 67.5586 14.5594C67.5586 15.1906 67.7285 15.7084 68.0683 16.113C68.4243 16.5013 68.9098 16.6955 69.5247 16.6955Z" fill="white"/>
<path d="M83.5982 20.9677C82.4169 20.9677 81.2922 20.8544 80.2241 20.6279C79.1723 20.3851 78.3551 20.0938 77.7725 19.754L79.6658 16.0159C80.3293 16.4204 81.0737 16.7279 81.899 16.9383C82.7405 17.1324 83.5334 17.2295 84.2778 17.2295C84.8928 17.2295 85.3135 17.1729 85.5401 17.0596C85.7828 16.9302 85.9042 16.7764 85.9042 16.5984C85.9042 16.4042 85.7424 16.2667 85.4187 16.1858C85.0951 16.0887 84.6743 16.0078 84.1565 15.943C83.6548 15.8783 83.1208 15.7812 82.5544 15.6518C81.988 15.5223 81.4459 15.3362 80.9281 15.0935C80.4264 14.8345 80.0138 14.4785 79.6901 14.0254C79.3665 13.5723 79.2046 12.9736 79.2046 12.2292C79.2046 11.0802 79.5364 10.1416 80.1999 9.41341C80.8795 8.66902 81.7857 8.11882 82.9185 7.7628C84.0513 7.3906 85.3054 7.20451 86.6809 7.20451C87.6519 7.20451 88.5824 7.29351 89.4724 7.47152C90.3786 7.63334 91.1797 7.87608 91.8755 8.19973L89.9822 11.9379C89.2863 11.5333 88.5905 11.2663 87.8946 11.1368C87.215 11.0074 86.5919 10.9427 86.0256 10.9427C85.3944 10.9427 84.9575 11.0155 84.7148 11.1611C84.472 11.2906 84.3507 11.4362 84.3507 11.598C84.3507 11.7922 84.5125 11.9379 84.8361 12.035C85.1598 12.1321 85.5724 12.2211 86.0741 12.302C86.5758 12.3667 87.1098 12.4638 87.6762 12.5933C88.2587 12.7065 88.8008 12.8926 89.3025 13.1516C89.8042 13.3943 90.2168 13.7422 90.5405 14.1953C90.8641 14.6484 91.0259 15.2472 91.0259 15.9916C91.0259 17.092 90.6861 18.0144 90.0064 18.7588C89.343 19.5032 88.4448 20.0615 87.3121 20.4337C86.1955 20.7897 84.9575 20.9677 83.5982 20.9677Z" fill="white"/>
<path fill-rule="evenodd" clip-rule="evenodd" d="M11.9542 8.05409L11.3739 10.9669H18.4595L17.5857 15.2877H10.513L9.42973 20.725H3.70114L7.09946 3.73337H20.9112L20.0373 8.05409H11.9542ZM21.8801 9.36063C21.8709 9.37011 21.8618 9.37961 21.8527 9.38914C21.376 9.8897 20.9739 10.4561 20.6464 11.0883C20.5968 11.1841 20.5489 11.2814 20.5027 11.3802C20.4398 11.5147 20.3801 11.6521 20.3235 11.7922C19.9513 12.7146 19.7652 13.726 19.7652 14.8264C19.7652 15.1414 19.7806 15.4452 19.8115 15.7378C19.8789 16.3774 20.02 16.9633 20.2348 17.4957C20.3306 17.7332 20.4411 17.96 20.5662 18.1762C21.1164 19.0824 21.8123 19.7783 22.6538 20.2638C23.4953 20.733 24.3529 20.9677 25.2268 20.9677C25.2958 20.9677 25.3642 20.9666 25.4321 20.9644C26.1703 20.9401 26.8426 20.7841 27.4491 20.4964C27.6632 20.3948 27.8691 20.2768 28.0668 20.1424C28.2433 20.0224 28.4132 19.8909 28.5766 19.7478C28.6596 19.675 28.741 19.5993 28.8207 19.5206L28.5766 20.725H33.7469L36.3927 7.44724H30.9068L30.6245 8.85913C30.3306 8.42035 29.9635 8.07918 29.5232 7.83562C29.0236 7.55923 28.4646 7.37362 27.8462 7.27879C27.5233 7.22927 27.1842 7.20451 26.8289 7.20451C25.8741 7.20451 24.9679 7.3987 24.1102 7.78708C23.7474 7.94756 23.4011 8.13812 23.0714 8.35877C22.9569 8.43538 22.8444 8.51561 22.7339 8.59946C22.4347 8.82659 22.1501 9.08031 21.8801 9.36063ZM27.1344 11.6008C26.896 11.6646 26.6728 11.7689 26.4647 11.9136C26.1087 12.1563 25.8255 12.5043 25.6152 12.9574C25.421 13.4105 25.3239 13.9445 25.3239 14.5594C25.3239 15.1744 25.4938 15.676 25.8336 16.0644C25.9744 16.2179 26.1353 16.3411 26.3165 16.4339C26.5795 16.5687 26.8852 16.6396 27.2336 16.6464C27.2523 16.6468 27.2711 16.647 27.2901 16.647C27.4742 16.647 27.649 16.6295 27.8145 16.5946C27.8302 16.5913 27.8459 16.5878 27.8615 16.5842C28.1139 16.5252 28.3441 16.4248 28.5523 16.2829C28.9083 16.024 29.1834 15.6679 29.3776 15.2148C29.5365 14.8727 29.6353 14.4843 29.6742 14.0499C29.6744 14.0478 29.6746 14.0457 29.6748 14.0436C29.681 13.9732 29.6856 13.9016 29.6887 13.8287C29.6887 13.8279 29.6888 13.827 29.6888 13.8261C29.6917 13.7561 29.6931 13.685 29.6931 13.6128C29.6931 12.9978 29.5151 12.4962 29.1591 12.1078C28.9527 11.8718 28.6954 11.7076 28.3874 11.615C28.1884 11.5551 27.9683 11.5252 27.727 11.5252C27.52 11.5252 27.3225 11.5504 27.1344 11.6008ZM26.7922 13.8627L26.7676 13.829C26.7538 13.8391 26.7406 13.8494 26.728 13.86C26.7419 13.8917 26.7577 13.9233 26.7752 13.9543L26.7922 13.8627ZM23.822 4.64744C24.7897 4.32913 25.7962 4.1703 26.8289 4.1703C27.5618 4.1703 28.2875 4.24611 28.9924 4.41303H40.0912L39.9761 4.99029C40.091 4.94975 40.2068 4.91105 40.3235 4.87415C41.7995 4.39164 43.3726 4.1703 45.0146 4.1703C46.1608 4.1703 47.281 4.27445 48.3703 4.4901C49.2016 4.64024 50.0022 4.85318 50.7596 5.14124H50.9951L51.7362 1.42737H63.4117L62.669 5.14124H65.3672C66.8949 4.47769 68.5476 4.1703 70.2773 4.1703C72.0909 4.1703 73.8257 4.4875 75.387 5.23897C76.4293 5.72463 77.3563 6.37125 78.1312 7.18477C79.199 6.08509 80.5252 5.33733 81.9898 4.87418C83.4658 4.39165 85.039 4.1703 86.681 4.1703C87.8271 4.1703 88.9474 4.27445 90.0367 4.49011C91.14 4.68936 92.1891 4.99924 93.1551 5.44855L96 6.77174L93.0811 12.5346C93.8218 13.6255 94.0602 14.8606 94.0602 15.9916C94.0602 17.7677 93.4898 19.4366 92.2597 20.7909C91.1786 21.9985 89.7945 22.8118 88.2592 23.3163L88.2465 23.3204L88.2338 23.3245C86.7759 23.7893 85.2214 24.0019 83.5982 24.0019C82.2224 24.0019 80.8857 23.8699 79.5945 23.596L79.5682 23.5904L79.5419 23.5844C78.3484 23.3089 77.1995 22.9324 76.2437 22.3749L75.8054 22.1192C75.519 22.307 75.2221 22.4829 74.9149 22.6467C73.1788 23.5816 71.2476 24.0019 69.2092 24.0019C67.4072 24.0019 65.6853 23.6913 64.1241 22.9689L64.1073 22.9612L64.0906 22.9532C63.6603 22.7477 63.2496 22.5157 62.8608 22.2567L61.7764 22.8514C60.9679 23.2947 60.0994 23.5859 59.1998 23.7517C58.3873 23.9196 57.561 24.0019 56.7249 24.0019C55.2234 24.0019 53.7451 23.723 52.4142 23.0168C51.5435 22.5548 50.8037 21.9362 50.2244 21.1766C49.2047 22.1744 47.9586 22.8675 46.5928 23.3163L46.5802 23.3204L46.5674 23.3245C45.1096 23.7893 43.5551 24.0019 41.9318 24.0019C40.556 24.0019 39.2193 23.8699 37.9282 23.596L37.9018 23.5904L37.8755 23.5844C37.3563 23.4645 36.8454 23.3256 36.3553 23.1609L36.2361 23.7592H27.283C26.6169 23.9233 25.9282 24.0019 25.2268 24.0019C23.7839 24.0019 22.4218 23.6085 21.1759 22.9137L21.1566 22.903L21.1375 22.8919C19.8144 22.1286 18.7629 21.0525 17.9726 19.7509L17.9562 19.7239L17.9404 19.6965C17.6841 19.2539 17.473 18.7945 17.3029 18.3219H13.0024L11.9191 23.7592H0L4.612 0.699158H24.6205L23.822 4.64744ZM39.0191 20.718C39.9484 20.8845 40.9193 20.9677 41.9318 20.9677C43.2912 20.9677 44.5291 20.7897 45.6457 20.4337C46.7785 20.0615 47.6766 19.5032 48.3401 18.7588C48.5694 18.5077 48.76 18.2363 48.9119 17.9446C49.2018 17.3882 49.3509 16.7581 49.3592 16.0543C49.3595 16.0334 49.3596 16.0125 49.3596 15.9916C49.3596 15.7121 49.3368 15.4532 49.2912 15.2148C49.2759 15.1351 49.2581 15.0577 49.2378 14.9826C49.2371 14.9803 49.2365 14.9779 49.2359 14.9756C49.2003 14.8456 49.1571 14.7225 49.1062 14.6063C49.0413 14.4581 48.9639 14.3211 48.8741 14.1953C48.5505 13.7422 48.1378 13.3943 47.6362 13.1516C47.6295 13.1481 47.6228 13.1447 47.6162 13.1413C47.6005 13.1333 47.5848 13.1253 47.569 13.1175C47.0862 12.8762 46.5665 12.7015 46.0098 12.5933C45.993 12.5894 45.9762 12.5856 45.9594 12.5818C45.9574 12.5814 45.9553 12.5809 45.9533 12.5804C45.8223 12.5509 45.6931 12.5231 45.5656 12.497C45.1622 12.4145 44.7762 12.3495 44.4077 12.302C44.3915 12.2994 44.3753 12.2967 44.3592 12.2941C44.0967 12.251 43.8591 12.2056 43.6465 12.158C43.6209 12.1522 43.5957 12.1465 43.5708 12.1407C43.4247 12.1066 43.291 12.0713 43.1698 12.035C42.8461 11.9379 42.6843 11.7922 42.6843 11.598C42.6843 11.4362 42.8057 11.2906 43.0484 11.1611C43.1542 11.0976 43.297 11.048 43.4766 11.0122C43.709 10.9658 44.0032 10.9427 44.3592 10.9427C44.4328 10.9427 44.5073 10.9437 44.5827 10.9459C44.5972 10.9464 44.6117 10.9468 44.6262 10.9473C44.9535 10.9585 45.2985 10.9901 45.6614 11.042C45.8457 11.0684 46.0347 11.1 46.2283 11.1368C46.2491 11.1407 46.2699 11.1447 46.2907 11.1488C46.3064 11.1519 46.3221 11.1551 46.3378 11.1584C46.7335 11.2402 47.1291 11.3665 47.5248 11.5372C47.6347 11.5847 47.7446 11.6356 47.8546 11.6899C47.9842 11.7539 48.1139 11.8227 48.2435 11.8963C48.2539 11.9023 48.2644 11.9082 48.2748 11.9142C48.2885 11.922 48.3021 11.9299 48.3158 11.9379L50.2092 8.19973C49.7408 7.98191 49.2249 7.80074 48.6613 7.65622C48.3875 7.586 48.1024 7.52443 47.8061 7.47152C47.6154 7.43339 47.4229 7.39934 47.2285 7.36938C46.5155 7.25946 45.7775 7.20451 45.0146 7.20451C43.6391 7.20451 42.3849 7.39061 41.2522 7.7628C40.4655 8.01005 39.788 8.35096 39.2199 8.78554C38.9699 8.9767 38.7412 9.186 38.5335 9.41341C37.8793 10.1314 37.5477 11.0539 37.5385 12.181C37.5384 12.197 37.5383 12.2131 37.5383 12.2292C37.5383 12.9736 37.7001 13.5723 38.0238 14.0254C38.0626 14.0798 38.1027 14.1327 38.1441 14.1843C38.3237 14.408 38.5274 14.6054 38.7552 14.7765C38.9125 14.8947 39.0814 15.0004 39.2617 15.0935C39.6754 15.2874 40.1045 15.4451 40.5492 15.5667C40.5595 15.5696 40.5698 15.5724 40.5801 15.5751C40.682 15.6026 40.7846 15.6281 40.8881 15.6518C41.042 15.6869 41.1935 15.7197 41.3426 15.7501C41.7423 15.8316 42.1248 15.8959 42.4901 15.943C42.5312 15.9482 42.5716 15.9534 42.6115 15.9587C42.8884 15.9958 43.1359 16.0378 43.3538 16.0848C43.3661 16.0874 43.3782 16.0901 43.3903 16.0927C43.5221 16.1219 43.6428 16.1529 43.7524 16.1858C44.076 16.2667 44.2378 16.4042 44.2378 16.5984C44.2378 16.7764 44.1165 16.9302 43.8737 17.0596C43.7827 17.1051 43.6603 17.1415 43.5066 17.1687C43.4897 17.1717 43.4725 17.1746 43.4549 17.1774C43.2334 17.2122 42.9523 17.2295 42.6115 17.2295C42.5184 17.2295 42.4245 17.228 42.3299 17.225C42.3282 17.2249 42.3265 17.2249 42.3247 17.2248C41.9788 17.2135 41.6227 17.1819 41.2564 17.13C41.0337 17.0985 40.8072 17.0594 40.577 17.0128C40.4631 16.9898 40.3484 16.965 40.2327 16.9383C39.8169 16.8323 39.4216 16.7016 39.0469 16.5464C38.9159 16.4921 38.7873 16.4347 38.6613 16.3744C38.645 16.3666 38.6289 16.3588 38.6127 16.3509C38.4011 16.2478 38.1967 16.1361 37.9995 16.0159L36.1061 19.754C36.2619 19.8449 36.4345 19.9323 36.6239 20.0162C36.729 20.0628 36.8393 20.1083 36.9547 20.1528C37.409 20.3277 37.9434 20.4861 38.5578 20.6279C38.7104 20.6602 38.8642 20.6903 39.0191 20.718ZM52.0158 15.5304C51.9849 15.6871 51.9591 15.8409 51.9385 15.9916C51.824 16.8266 51.8666 17.5692 52.0664 18.2193C52.0949 18.312 52.1266 18.4028 52.1615 18.4918C52.4851 19.3009 53.0434 19.9158 53.8364 20.3366C54.6293 20.7573 55.5922 20.9677 56.7249 20.9677C57.3722 20.9677 58.0034 20.903 58.6183 20.7735C59.2494 20.6602 59.8158 20.466 60.3174 20.1909L59.6863 16.5013C59.4992 16.5877 59.3184 16.6613 59.144 16.7221C59.1224 16.7296 59.1009 16.7369 59.0795 16.7441C58.9015 16.7926 58.6992 16.8169 58.4726 16.8169C58.3341 16.8169 58.2089 16.8023 58.0973 16.7731C57.909 16.724 57.7591 16.6334 57.6473 16.5013C57.4693 16.291 57.4208 15.9592 57.5017 15.5061L58.1668 12.1806H60.8757L61.6768 8.17546H58.9678L59.7106 4.46158H54.2248L53.4836 8.17546H51.6517L50.8507 12.1806H52.6843L52.0158 15.5304ZM62.0099 15.2148C62.0255 15.5151 62.0594 15.8056 62.1116 16.0865C62.2454 16.8061 62.4995 17.4622 62.8738 18.0548C62.94 18.1569 63.0093 18.2565 63.0814 18.3536C63.6617 19.1341 64.434 19.7547 65.3982 20.2152C66.4825 20.7169 67.7528 20.9677 69.2092 20.9677C70.8274 20.9677 72.2515 20.636 73.4814 19.9725C73.8962 19.7516 74.2815 19.5037 74.6372 19.229C74.9088 19.0192 75.1632 18.7937 75.4003 18.5525C75.7852 18.161 76.1246 17.7281 76.4185 17.2538C76.7265 16.7567 76.968 16.2309 77.1427 15.6762C77.2281 15.4055 77.2975 15.1279 77.351 14.8434C77.4259 14.4461 77.4697 14.0354 77.4825 13.6113C77.4852 13.5234 77.4865 13.4348 77.4865 13.3458C77.4865 12.957 77.4574 12.5848 77.3991 12.2292C77.2706 11.4448 77.0004 10.7409 76.5884 10.1174C76.5564 10.0666 76.5236 10.0165 76.49 9.96708C75.9134 9.11727 75.1128 8.45534 74.0882 7.98127C73.0202 7.46343 71.7498 7.20451 70.2773 7.20451C68.6752 7.20451 67.2511 7.53625 66.0051 8.19973C65.4803 8.47918 65.0028 8.80169 64.5727 9.16727C63.9817 9.66965 63.4801 10.2534 63.068 10.9184C62.7637 11.4094 62.5244 11.9284 62.3502 12.4755C62.2853 12.6793 62.2294 12.887 62.1826 13.0985C62.0608 13.6482 61.9999 14.2242 61.9999 14.8264C61.9999 14.9577 62.0032 15.0871 62.0099 15.2148ZM68.6995 11.8651C68.3434 12.1078 68.0602 12.4638 67.8499 12.9331C67.6557 13.3862 67.5586 13.9283 67.5586 14.5594C67.5586 15.1906 67.7285 15.7084 68.0683 16.113C68.4244 16.5013 68.9098 16.6955 69.5248 16.6955C70.0102 16.6955 70.431 16.5742 70.787 16.3314C71.143 16.0725 71.4181 15.7165 71.6123 15.2634C71.8227 14.7941 71.9279 14.2439 71.9279 13.6128C71.9279 13.0464 71.7579 12.5528 71.4181 12.1321C71.0783 11.6951 70.5928 11.4767 69.9617 11.4767C69.4924 11.4767 69.0716 11.6061 68.6995 11.8651ZM69.9758 14.5107C70.0244 14.5094 70.0983 14.501 70.1865 14.4738C70.2729 14.4472 70.3484 14.4102 70.4085 14.3717C70.4129 14.3688 70.4173 14.366 70.4215 14.3632C70.4251 14.3606 70.4286 14.3581 70.432 14.3556C70.4543 14.3394 70.4748 14.3231 70.4933 14.3071C70.4653 14.2582 70.4314 14.2087 70.3917 14.1614L69.9758 14.5107ZM70.1476 13.9178C70.1339 13.9071 70.1199 13.8967 70.1057 13.8865C70.0885 13.8742 70.0711 13.8622 70.0533 13.8507C70.0236 13.8314 69.993 13.8132 69.9617 13.7963C69.9178 13.7725 69.8726 13.7512 69.8263 13.7327C69.6965 13.6808 69.5982 13.6666 69.5523 13.6627L70.1476 13.9178ZM69.4814 13.6645L70.2551 14.0113C70.2724 14.0281 70.289 14.0452 70.305 14.0627L69.8316 14.4966C69.8266 14.4957 69.8214 14.4947 69.8162 14.4936C69.7466 14.4794 69.6568 14.4538 69.554 14.4075C69.5442 14.4031 69.5344 14.3985 69.5248 14.3939C69.4934 14.379 69.4629 14.363 69.4334 14.3462L69.0777 13.8245C69.17 13.7615 69.2697 13.7162 69.3635 13.6892C69.3921 13.6809 69.4177 13.6751 69.4395 13.671C69.4555 13.668 69.4695 13.6659 69.4814 13.6645ZM69.2572 14.2279L69.0024 13.8775C68.9917 13.8853 68.9813 13.8933 68.9714 13.9014C68.9883 13.9358 69.0065 13.9667 69.0246 13.9937C69.0314 14.0037 69.0381 14.0131 69.0447 14.022C69.0492 14.0274 69.0537 14.0327 69.0583 14.0381C69.1006 14.0877 69.1491 14.1367 69.203 14.1834C69.2205 14.1985 69.2386 14.2133 69.2572 14.2279ZM79.8614 9.84561C79.4311 10.49 79.2123 11.2684 79.2048 12.181C79.2047 12.197 79.2047 12.2131 79.2047 12.2292C79.2047 12.6473 79.2557 13.0195 79.3578 13.3458C79.4375 13.6003 79.5483 13.8268 79.6901 14.0254C79.8974 14.3156 80.1412 14.566 80.4215 14.7766C80.4246 14.7789 80.4277 14.7812 80.4308 14.7835C80.5855 14.8989 80.7513 15.0022 80.9281 15.0935C81.3418 15.2874 81.7709 15.4451 82.2155 15.5667C82.2259 15.5696 82.2362 15.5724 82.2465 15.5751C82.3483 15.6026 82.451 15.6281 82.5544 15.6518C82.7083 15.6869 82.8598 15.7197 83.009 15.7501C83.4086 15.8316 83.7911 15.8959 84.1565 15.943C84.1976 15.9482 84.238 15.9534 84.2779 15.9587C84.5548 15.9958 84.8022 16.0378 85.0202 16.0848C85.0324 16.0874 85.0446 16.0901 85.0566 16.0927C85.1885 16.1219 85.3092 16.1529 85.4187 16.1858C85.7424 16.2667 85.9042 16.4042 85.9042 16.5984C85.9042 16.7764 85.7828 16.9302 85.5401 17.0596C85.4491 17.1051 85.3267 17.1415 85.173 17.1687C85.1561 17.1717 85.1389 17.1746 85.1212 17.1774C84.8997 17.2122 84.6186 17.2295 84.2779 17.2295C84.1847 17.2295 84.0909 17.228 83.9962 17.225C83.9945 17.2249 83.9928 17.2249 83.9911 17.2248C83.6451 17.2135 83.289 17.1819 82.9228 17.13C82.7 17.0985 82.4735 17.0594 82.2433 17.0128C82.1295 16.9898 82.0147 16.965 81.899 16.9383C81.4832 16.8323 81.088 16.7016 80.7133 16.5464C80.5822 16.4921 80.4537 16.4347 80.3276 16.3744C80.3114 16.3666 80.2952 16.3588 80.2791 16.3509C80.2288 16.3264 80.179 16.3015 80.1295 16.276C79.9708 16.1943 79.8163 16.1076 79.6659 16.0159L77.7725 19.754C77.9024 19.8298 78.0439 19.9031 78.1971 19.974C78.2276 19.9882 78.2587 20.0023 78.2902 20.0162C78.8089 20.2462 79.4536 20.45 80.2242 20.6279C80.3768 20.6602 80.5305 20.6903 80.6854 20.718C81.6147 20.8845 82.5857 20.9677 83.5982 20.9677C84.9575 20.9677 86.1955 20.7897 87.3121 20.4337C88.4448 20.0615 89.343 19.5032 90.0064 18.7588C90.6732 18.0286 91.0129 17.1271 91.0256 16.0543C91.0258 16.0334 91.0259 16.0125 91.0259 15.9916C91.0259 15.2472 90.8641 14.6484 90.5405 14.1953C90.2168 13.7422 89.8042 13.3943 89.3025 13.1516C89.2959 13.1481 89.2892 13.1447 89.2825 13.1413C88.7865 12.8877 88.251 12.705 87.6762 12.5933C87.6594 12.5894 87.6426 12.5856 87.6258 12.5818C87.6238 12.5814 87.6217 12.5809 87.6197 12.5804C87.4887 12.5509 87.3594 12.5231 87.2319 12.497C86.8285 12.4145 86.4426 12.3495 86.0741 12.302C86.0578 12.2994 86.0416 12.2967 86.0256 12.2941C85.7631 12.251 85.5255 12.2056 85.3129 12.158C85.2873 12.1522 85.2621 12.1465 85.2372 12.1407C85.091 12.1066 84.9574 12.0713 84.8362 12.035C84.5125 11.9379 84.3507 11.7922 84.3507 11.598C84.3507 11.4362 84.472 11.2906 84.7148 11.1611C84.8206 11.0976 84.9633 11.048 85.143 11.0122C85.3754 10.9658 85.6696 10.9427 86.0256 10.9427C86.0991 10.9427 86.1736 10.9437 86.2491 10.9459C86.2636 10.9464 86.2781 10.9468 86.2926 10.9473C86.6199 10.9585 86.9649 10.9901 87.3277 11.042C87.5121 11.0684 87.7011 11.1 87.8946 11.1368C87.9154 11.1407 87.9362 11.1447 87.957 11.1488C87.9727 11.1519 87.9884 11.1551 88.0042 11.1584C88.3998 11.2402 88.7955 11.3665 89.1912 11.5372C89.4308 11.6406 89.6703 11.7603 89.9099 11.8963C89.9203 11.9023 89.9307 11.9082 89.9412 11.9142C89.9548 11.922 89.9685 11.9299 89.9822 11.9379L91.8755 8.19973C91.1797 7.87608 90.3786 7.63334 89.4724 7.47152C89.2818 7.43339 89.0893 7.39934 88.8949 7.36938C88.1819 7.25946 87.4439 7.20451 86.681 7.20451C85.3054 7.20451 84.0513 7.39061 82.9185 7.7628C81.7858 8.11882 80.8795 8.66902 80.1999 9.41341C80.0754 9.55007 79.9625 9.69413 79.8614 9.84561Z" fill="#EC3333"/>
<path d="M71.1638 14.6565C71.1638 15.0755 70.0656 14.6565 69.6467 14.6565C69.2278 14.6565 68.8881 14.3169 68.8881 13.898C68.8881 13.479 69.2278 13.1394 69.6467 13.1394C70.0656 13.1394 71.1638 14.2376 71.1638 14.6565Z" fill="#EC3333"/>
</svg>
